%TF.GenerationSoftware,KiCad,Pcbnew,9.0.1*%
%TF.CreationDate,2025-05-06T13:04:28-06:00*%
%TF.ProjectId,2025_04_STM32F103_RobotBrain,32303235-5f30-4345-9f53-544d33324631,rev?*%
%TF.SameCoordinates,Original*%
%TF.FileFunction,Copper,L1,Top*%
%TF.FilePolarity,Positive*%
%FSLAX46Y46*%
G04 Gerber Fmt 4.6, Leading zero omitted, Abs format (unit mm)*
G04 Created by KiCad (PCBNEW 9.0.1) date 2025-05-06 13:04:28*
%MOMM*%
%LPD*%
G01*
G04 APERTURE LIST*
G04 Aperture macros list*
%AMRoundRect*
0 Rectangle with rounded corners*
0 $1 Rounding radius*
0 $2 $3 $4 $5 $6 $7 $8 $9 X,Y pos of 4 corners*
0 Add a 4 corners polygon primitive as box body*
4,1,4,$2,$3,$4,$5,$6,$7,$8,$9,$2,$3,0*
0 Add four circle primitives for the rounded corners*
1,1,$1+$1,$2,$3*
1,1,$1+$1,$4,$5*
1,1,$1+$1,$6,$7*
1,1,$1+$1,$8,$9*
0 Add four rect primitives between the rounded corners*
20,1,$1+$1,$2,$3,$4,$5,0*
20,1,$1+$1,$4,$5,$6,$7,0*
20,1,$1+$1,$6,$7,$8,$9,0*
20,1,$1+$1,$8,$9,$2,$3,0*%
G04 Aperture macros list end*
%TA.AperFunction,SMDPad,CuDef*%
%ADD10RoundRect,0.250000X-0.450000X0.350000X-0.450000X-0.350000X0.450000X-0.350000X0.450000X0.350000X0*%
%TD*%
%TA.AperFunction,SMDPad,CuDef*%
%ADD11RoundRect,0.075000X0.075000X-0.700000X0.075000X0.700000X-0.075000X0.700000X-0.075000X-0.700000X0*%
%TD*%
%TA.AperFunction,SMDPad,CuDef*%
%ADD12RoundRect,0.075000X0.700000X-0.075000X0.700000X0.075000X-0.700000X0.075000X-0.700000X-0.075000X0*%
%TD*%
%TA.AperFunction,SMDPad,CuDef*%
%ADD13RoundRect,0.250000X0.350000X0.450000X-0.350000X0.450000X-0.350000X-0.450000X0.350000X-0.450000X0*%
%TD*%
%TA.AperFunction,SMDPad,CuDef*%
%ADD14RoundRect,0.250000X0.450000X-0.350000X0.450000X0.350000X-0.450000X0.350000X-0.450000X-0.350000X0*%
%TD*%
%TA.AperFunction,SMDPad,CuDef*%
%ADD15RoundRect,0.250000X-0.337500X-0.475000X0.337500X-0.475000X0.337500X0.475000X-0.337500X0.475000X0*%
%TD*%
%TA.AperFunction,ComponentPad*%
%ADD16RoundRect,0.250000X-0.600000X-0.750000X0.600000X-0.750000X0.600000X0.750000X-0.600000X0.750000X0*%
%TD*%
%TA.AperFunction,ComponentPad*%
%ADD17O,1.700000X2.000000*%
%TD*%
%TA.AperFunction,ComponentPad*%
%ADD18R,1.700000X1.700000*%
%TD*%
%TA.AperFunction,ComponentPad*%
%ADD19O,1.700000X1.700000*%
%TD*%
%TA.AperFunction,ComponentPad*%
%ADD20RoundRect,0.250000X0.725000X-0.600000X0.725000X0.600000X-0.725000X0.600000X-0.725000X-0.600000X0*%
%TD*%
%TA.AperFunction,ComponentPad*%
%ADD21O,1.950000X1.700000*%
%TD*%
%TA.AperFunction,SMDPad,CuDef*%
%ADD22RoundRect,0.250000X0.450000X-0.325000X0.450000X0.325000X-0.450000X0.325000X-0.450000X-0.325000X0*%
%TD*%
%TA.AperFunction,SMDPad,CuDef*%
%ADD23RoundRect,0.150000X-0.587500X-0.150000X0.587500X-0.150000X0.587500X0.150000X-0.587500X0.150000X0*%
%TD*%
%TA.AperFunction,SMDPad,CuDef*%
%ADD24RoundRect,0.250000X-0.450000X0.325000X-0.450000X-0.325000X0.450000X-0.325000X0.450000X0.325000X0*%
%TD*%
%TA.AperFunction,SMDPad,CuDef*%
%ADD25RoundRect,0.250000X-0.350000X-0.450000X0.350000X-0.450000X0.350000X0.450000X-0.350000X0.450000X0*%
%TD*%
%TA.AperFunction,SMDPad,CuDef*%
%ADD26R,1.000000X1.000000*%
%TD*%
%TA.AperFunction,SMDPad,CuDef*%
%ADD27RoundRect,0.250000X0.337500X0.475000X-0.337500X0.475000X-0.337500X-0.475000X0.337500X-0.475000X0*%
%TD*%
%TA.AperFunction,ComponentPad*%
%ADD28RoundRect,0.250000X-0.725000X0.600000X-0.725000X-0.600000X0.725000X-0.600000X0.725000X0.600000X0*%
%TD*%
%TA.AperFunction,SMDPad,CuDef*%
%ADD29R,1.400000X0.600000*%
%TD*%
%TA.AperFunction,SMDPad,CuDef*%
%ADD30R,1.400000X0.400000*%
%TD*%
%TA.AperFunction,SMDPad,CuDef*%
%ADD31R,0.400000X1.400000*%
%TD*%
%TA.AperFunction,SMDPad,CuDef*%
%ADD32RoundRect,0.250000X-0.475000X0.337500X-0.475000X-0.337500X0.475000X-0.337500X0.475000X0.337500X0*%
%TD*%
%TA.AperFunction,SMDPad,CuDef*%
%ADD33RoundRect,0.150000X-0.150000X0.512500X-0.150000X-0.512500X0.150000X-0.512500X0.150000X0.512500X0*%
%TD*%
%TA.AperFunction,ComponentPad*%
%ADD34RoundRect,0.250000X-0.600000X-0.725000X0.600000X-0.725000X0.600000X0.725000X-0.600000X0.725000X0*%
%TD*%
%TA.AperFunction,ComponentPad*%
%ADD35O,1.700000X1.950000*%
%TD*%
%TA.AperFunction,SMDPad,CuDef*%
%ADD36R,1.400000X1.200000*%
%TD*%
%TA.AperFunction,SMDPad,CuDef*%
%ADD37R,2.300000X1.500000*%
%TD*%
%TA.AperFunction,SMDPad,CuDef*%
%ADD38RoundRect,0.250000X0.325000X0.450000X-0.325000X0.450000X-0.325000X-0.450000X0.325000X-0.450000X0*%
%TD*%
%TA.AperFunction,SMDPad,CuDef*%
%ADD39RoundRect,0.250000X0.475000X-0.337500X0.475000X0.337500X-0.475000X0.337500X-0.475000X-0.337500X0*%
%TD*%
%TA.AperFunction,SMDPad,CuDef*%
%ADD40RoundRect,0.250000X-0.250000X0.525000X-0.250000X-0.525000X0.250000X-0.525000X0.250000X0.525000X0*%
%TD*%
%TA.AperFunction,SMDPad,CuDef*%
%ADD41R,1.200000X2.500000*%
%TD*%
%TA.AperFunction,SMDPad,CuDef*%
%ADD42R,0.500000X2.000000*%
%TD*%
%TA.AperFunction,SMDPad,CuDef*%
%ADD43R,2.000000X1.700000*%
%TD*%
%TA.AperFunction,ViaPad*%
%ADD44C,0.600000*%
%TD*%
%TA.AperFunction,Conductor*%
%ADD45C,0.508000*%
%TD*%
%TA.AperFunction,Conductor*%
%ADD46C,0.254000*%
%TD*%
%TA.AperFunction,Conductor*%
%ADD47C,0.200000*%
%TD*%
%TA.AperFunction,Conductor*%
%ADD48C,0.381000*%
%TD*%
G04 APERTURE END LIST*
D10*
%TO.P,R2,1*%
%TO.N,/D+*%
X137680000Y-41715000D03*
%TO.P,R2,2*%
%TO.N,/USB_CONN_D+*%
X137680000Y-43715000D03*
%TD*%
D11*
%TO.P,U1,1,VBAT*%
%TO.N,unconnected-(U1-VBAT-Pad1)*%
X136990000Y-72760000D03*
%TO.P,U1,2,PC13*%
%TO.N,/USER_LED*%
X137490000Y-72760000D03*
%TO.P,U1,3,PC14*%
%TO.N,unconnected-(U1-PC14-Pad3)*%
X137990000Y-72760000D03*
%TO.P,U1,4,PC15*%
%TO.N,unconnected-(U1-PC15-Pad4)*%
X138490000Y-72760000D03*
%TO.P,U1,5,RCC_OSC_IN*%
%TO.N,/OSC_IN*%
X138990000Y-72760000D03*
%TO.P,U1,6,RCC_OSC_OUT*%
%TO.N,/OSC_OUT*%
X139490000Y-72760000D03*
%TO.P,U1,7,NRST*%
%TO.N,/RESET*%
X139990000Y-72760000D03*
%TO.P,U1,8,PC0*%
%TO.N,unconnected-(U1-PC0-Pad8)*%
X140490000Y-72760000D03*
%TO.P,U1,9,PC1*%
%TO.N,unconnected-(U1-PC1-Pad9)*%
X140990000Y-72760000D03*
%TO.P,U1,10,PC2*%
%TO.N,unconnected-(U1-PC2-Pad10)*%
X141490000Y-72760000D03*
%TO.P,U1,11,PC3*%
%TO.N,unconnected-(U1-PC3-Pad11)*%
X141990000Y-72760000D03*
%TO.P,U1,12,VSSA*%
%TO.N,GND*%
X142490000Y-72760000D03*
%TO.P,U1,13,VDDA*%
%TO.N,+3V3*%
X142990000Y-72760000D03*
%TO.P,U1,14,PA0*%
%TO.N,/ULTRA_TRIG*%
X143490000Y-72760000D03*
%TO.P,U1,15,PA1*%
%TO.N,Net-(U1-PA1)*%
X143990000Y-72760000D03*
%TO.P,U1,16,PA2*%
X144490000Y-72760000D03*
D12*
%TO.P,U1,17,PA3*%
%TO.N,/ULTRA_ECHO*%
X146415000Y-70835000D03*
%TO.P,U1,18,VSS*%
%TO.N,GND*%
X146415000Y-70335000D03*
%TO.P,U1,19,VDD*%
%TO.N,+3V3*%
X146415000Y-69835000D03*
%TO.P,U1,20,PA4*%
%TO.N,/PWR_ADC*%
X146415000Y-69335000D03*
%TO.P,U1,21,PA5*%
%TO.N,unconnected-(U1-PA5-Pad21)*%
X146415000Y-68835000D03*
%TO.P,U1,22,PA6*%
%TO.N,/E1B*%
X146415000Y-68335000D03*
%TO.P,U1,23,PA7*%
%TO.N,/E1A*%
X146415000Y-67835000D03*
%TO.P,U1,24,PC4*%
%TO.N,unconnected-(U1-PC4-Pad24)*%
X146415000Y-67335000D03*
%TO.P,U1,25,PC5*%
%TO.N,unconnected-(U1-PC5-Pad25)*%
X146415000Y-66835000D03*
%TO.P,U1,26,PB0*%
%TO.N,/uBUTTON*%
X146415000Y-66335000D03*
%TO.P,U1,27,PB1*%
%TO.N,unconnected-(U1-PB1-Pad27)*%
X146415000Y-65835000D03*
%TO.P,U1,28,PB2*%
%TO.N,/IMU_INT*%
X146415000Y-65335000D03*
%TO.P,U1,29,PB10*%
%TO.N,/IMU_I2C_SCL*%
X146415000Y-64835000D03*
%TO.P,U1,30,PB11*%
%TO.N,/IMU_I2C_SDA*%
X146415000Y-64335000D03*
%TO.P,U1,31,VSS*%
%TO.N,GND*%
X146415000Y-63835000D03*
%TO.P,U1,32,VDD*%
%TO.N,+3V3*%
X146415000Y-63335000D03*
D11*
%TO.P,U1,33,PB12*%
%TO.N,/PS2_CS*%
X144490000Y-61410000D03*
%TO.P,U1,34,PB13*%
%TO.N,/PS2_SCK*%
X143990000Y-61410000D03*
%TO.P,U1,35,PB14*%
%TO.N,/PS2_MISO*%
X143490000Y-61410000D03*
%TO.P,U1,36,PB15*%
%TO.N,/PS2_MOSI*%
X142990000Y-61410000D03*
%TO.P,U1,37,PC6*%
%TO.N,/AN1*%
X142490000Y-61410000D03*
%TO.P,U1,38,PC7*%
%TO.N,/AN2*%
X141990000Y-61410000D03*
%TO.P,U1,39,PC8*%
%TO.N,/BN1*%
X141490000Y-61410000D03*
%TO.P,U1,40,PC9*%
%TO.N,/BN2*%
X140990000Y-61410000D03*
%TO.P,U1,41,PA8*%
%TO.N,/BL_WAKEUP*%
X140490000Y-61410000D03*
%TO.P,U1,42,PA9*%
%TO.N,/BL_RX*%
X139990000Y-61410000D03*
%TO.P,U1,43,PA10*%
%TO.N,/BL_TX*%
X139490000Y-61410000D03*
%TO.P,U1,44,USB_DM*%
%TO.N,/USB_D-*%
X138990000Y-61410000D03*
%TO.P,U1,45,USB_DP*%
%TO.N,/USB_D+*%
X138490000Y-61410000D03*
%TO.P,U1,46,SYS_JTMS-SWDIO*%
%TO.N,/SWDIO*%
X137990000Y-61410000D03*
%TO.P,U1,47,VSS*%
%TO.N,GND*%
X137490000Y-61410000D03*
%TO.P,U1,48,VDD*%
%TO.N,+3V3*%
X136990000Y-61410000D03*
D12*
%TO.P,U1,49,SYS_JTCK-SWCLK*%
%TO.N,/SWCLK*%
X135065000Y-63335000D03*
%TO.P,U1,50,PA15*%
%TO.N,unconnected-(U1-PA15-Pad50)*%
X135065000Y-63835000D03*
%TO.P,U1,51,PC10*%
%TO.N,/USER_TX*%
X135065000Y-64335000D03*
%TO.P,U1,52,PC11*%
%TO.N,/USER_RX*%
X135065000Y-64835000D03*
%TO.P,U1,53,PC12*%
%TO.N,/X4*%
X135065000Y-65335000D03*
%TO.P,U1,54,PD2*%
%TO.N,/X3*%
X135065000Y-65835000D03*
%TO.P,U1,55,PB3*%
%TO.N,/X2*%
X135065000Y-66335000D03*
%TO.P,U1,56,PB4*%
%TO.N,/X1*%
X135065000Y-66835000D03*
%TO.P,U1,57,PB5*%
%TO.N,unconnected-(U1-PB5-Pad57)*%
X135065000Y-67335000D03*
%TO.P,U1,58,PB6*%
%TO.N,/E2B*%
X135065000Y-67835000D03*
%TO.P,U1,59,PB7*%
%TO.N,/E2A*%
X135065000Y-68335000D03*
%TO.P,U1,60,BOOT0*%
%TO.N,/BOOT*%
X135065000Y-68835000D03*
%TO.P,U1,61,PB8*%
%TO.N,unconnected-(U1-PB8-Pad61)*%
X135065000Y-69335000D03*
%TO.P,U1,62,PB9*%
%TO.N,/RGB_DIN*%
X135065000Y-69835000D03*
%TO.P,U1,63,VSS*%
%TO.N,GND*%
X135065000Y-70335000D03*
%TO.P,U1,64,VDD*%
%TO.N,+3V3*%
X135065000Y-70835000D03*
%TD*%
D13*
%TO.P,R9,1*%
%TO.N,+5V*%
X128117500Y-81300000D03*
%TO.P,R9,2*%
%TO.N,Net-(LED1-DIN)*%
X126117500Y-81300000D03*
%TD*%
D14*
%TO.P,R3,1*%
%TO.N,/USB_CONN_D-*%
X139860000Y-43735000D03*
%TO.P,R3,2*%
%TO.N,/D-*%
X139860000Y-41735000D03*
%TD*%
D15*
%TO.P,C12,1*%
%TO.N,+5V*%
X97200000Y-97150000D03*
%TO.P,C12,2*%
%TO.N,GND*%
X99275000Y-97150000D03*
%TD*%
D16*
%TO.P,J6,1,Pin_1*%
%TO.N,+3V3*%
X122580000Y-99900000D03*
D17*
%TO.P,J6,2,Pin_2*%
%TO.N,GND*%
X125080000Y-99900000D03*
%TD*%
D18*
%TO.P,J9,1,Pin_1*%
%TO.N,+3V3*%
X178500000Y-49800000D03*
D19*
%TO.P,J9,2,Pin_2*%
%TO.N,/PS2_SCK*%
X178500000Y-47260000D03*
%TO.P,J9,3,Pin_3*%
%TO.N,unconnected-(J9-Pin_3-Pad3)*%
X178500000Y-44720000D03*
%TO.P,J9,4,Pin_4*%
%TO.N,/PS2_CS*%
X178500000Y-42180000D03*
%TO.P,J9,5,Pin_5*%
%TO.N,GND*%
X178500000Y-39640000D03*
%TO.P,J9,6,Pin_6*%
%TO.N,/PS2_MISO*%
X178500000Y-37100000D03*
%TO.P,J9,7,Pin_7*%
%TO.N,/PS2_MOSI*%
X178500000Y-34560000D03*
%TD*%
D20*
%TO.P,J8,1,Pin_1*%
%TO.N,/E2A*%
X157890000Y-100070000D03*
D21*
%TO.P,J8,2,Pin_2*%
%TO.N,/E2B*%
X157890000Y-97570000D03*
%TO.P,J8,3,Pin_3*%
%TO.N,/E1A*%
X157890000Y-95070000D03*
%TO.P,J8,4,Pin_4*%
%TO.N,/E1B*%
X157890000Y-92570000D03*
%TO.P,J8,5,Pin_5*%
%TO.N,/PWR_ADC*%
X157890000Y-90070000D03*
%TD*%
D18*
%TO.P,J2,1,Pin_1*%
%TO.N,+5V*%
X176465000Y-79835000D03*
D19*
%TO.P,J2,2,Pin_2*%
%TO.N,GND*%
X176465000Y-77295000D03*
%TO.P,J2,3,Pin_3*%
%TO.N,/IMU_I2C_SCL*%
X176465000Y-74755000D03*
%TO.P,J2,4,Pin_4*%
%TO.N,/IMU_I2C_SDA*%
X176465000Y-72215000D03*
%TO.P,J2,5,Pin_5*%
%TO.N,unconnected-(J2-Pin_5-Pad5)*%
X176465000Y-69675000D03*
%TO.P,J2,6,Pin_6*%
%TO.N,unconnected-(J2-Pin_6-Pad6)*%
X176465000Y-67135000D03*
%TO.P,J2,7,Pin_7*%
%TO.N,unconnected-(J2-Pin_7-Pad7)*%
X176465000Y-64595000D03*
%TO.P,J2,8,Pin_8*%
%TO.N,/IMU_INT*%
X176465000Y-62055000D03*
%TD*%
D22*
%TO.P,D4,1,K*%
%TO.N,GND*%
X148410000Y-33500000D03*
%TO.P,D4,2,A*%
%TO.N,Net-(D4-A)*%
X148410000Y-31450000D03*
%TD*%
D23*
%TO.P,Q1,1,G*%
%TO.N,+3V3*%
X126210000Y-77360000D03*
%TO.P,Q1,2,S*%
%TO.N,Net-(LED1-DIN)*%
X126210000Y-79260000D03*
%TO.P,Q1,3,D*%
%TO.N,/RGB_DIN*%
X128085000Y-78310000D03*
%TD*%
D24*
%TO.P,D3,1,K*%
%TO.N,GND*%
X130690000Y-75155000D03*
%TO.P,D3,2,A*%
%TO.N,Net-(D3-A)*%
X130690000Y-77205000D03*
%TD*%
D25*
%TO.P,R5,1*%
%TO.N,+3V3*%
X145347500Y-81570000D03*
%TO.P,R5,2*%
%TO.N,Net-(D2-A)*%
X147347500Y-81570000D03*
%TD*%
D26*
%TO.P,LED1,1,VDD*%
%TO.N,+5V*%
X97150000Y-100700000D03*
%TO.P,LED1,2,DOUT*%
%TO.N,Net-(LED1-DOUT)*%
X97150000Y-103900000D03*
%TO.P,LED1,3,VSS*%
%TO.N,GND*%
X101550000Y-103900000D03*
%TO.P,LED1,4,DIN*%
%TO.N,Net-(LED1-DIN)*%
X101550000Y-100700000D03*
%TD*%
D24*
%TO.P,F1,1*%
%TO.N,Net-(J1-VBUS)*%
X142670000Y-40210000D03*
%TO.P,F1,2*%
%TO.N,Vusb*%
X142670000Y-42260000D03*
%TD*%
D27*
%TO.P,C9,1*%
%TO.N,/OSC_IN*%
X138337500Y-75730000D03*
%TO.P,C9,2*%
%TO.N,GND*%
X136262500Y-75730000D03*
%TD*%
D13*
%TO.P,R10,1*%
%TO.N,/RGB_DIN*%
X128117500Y-75210000D03*
%TO.P,R10,2*%
%TO.N,+3V3*%
X126117500Y-75210000D03*
%TD*%
D18*
%TO.P,J4,1,Pin_1*%
%TO.N,+3V3*%
X116160000Y-40040000D03*
D19*
%TO.P,J4,2,Pin_2*%
%TO.N,/SWCLK*%
X118700000Y-40040000D03*
%TO.P,J4,3,Pin_3*%
%TO.N,GND*%
X121240000Y-40040000D03*
%TO.P,J4,4,Pin_4*%
%TO.N,/SWDIO*%
X123780000Y-40040000D03*
%TD*%
D25*
%TO.P,R8,1*%
%TO.N,+3V3*%
X175000000Y-86410000D03*
%TO.P,R8,2*%
%TO.N,/uBUTTON*%
X177000000Y-86410000D03*
%TD*%
D28*
%TO.P,J11,1,Pin_1*%
%TO.N,+3V3*%
X98720000Y-46270000D03*
D21*
%TO.P,J11,2,Pin_2*%
%TO.N,/USER_TX*%
X98720000Y-48770000D03*
%TO.P,J11,3,Pin_3*%
%TO.N,/USER_RX*%
X98720000Y-51270000D03*
%TO.P,J11,4,Pin_4*%
%TO.N,GND*%
X98720000Y-53770000D03*
%TD*%
D29*
%TO.P,MDBT42T-AT1,1,GND@1*%
%TO.N,GND*%
X155200000Y-30540000D03*
D30*
%TO.P,MDBT42T-AT1,2,NC@2*%
%TO.N,unconnected-(MDBT42T-AT1-NC@2-Pad2)*%
X155200000Y-31340000D03*
%TO.P,MDBT42T-AT1,3,NC@3*%
%TO.N,unconnected-(MDBT42T-AT1-NC@3-Pad3)*%
X155200000Y-32040000D03*
%TO.P,MDBT42T-AT1,4,RESET*%
%TO.N,unconnected-(MDBT42T-AT1-RESET-Pad4)*%
X155200000Y-32740000D03*
%TO.P,MDBT42T-AT1,5,INDICATOR*%
%TO.N,Net-(MDBT42T-AT1-INDICATOR)*%
X155200000Y-33440000D03*
%TO.P,MDBT42T-AT1,6,WAKEUP*%
%TO.N,/BL_WAKEUP*%
X155200000Y-34140000D03*
%TO.P,MDBT42T-AT1,7,TX*%
%TO.N,/BL_TX*%
X155200000Y-34840000D03*
%TO.P,MDBT42T-AT1,8,RX*%
%TO.N,/BL_RX*%
X155200000Y-35540000D03*
%TO.P,MDBT42T-AT1,9,UART_PD*%
%TO.N,GND*%
X155200000Y-36240000D03*
D31*
%TO.P,MDBT42T-AT1,10,GND@10*%
X156300000Y-37740000D03*
%TO.P,MDBT42T-AT1,11,ADC*%
%TO.N,unconnected-(MDBT42T-AT1-ADC-Pad11)*%
X157000000Y-37740000D03*
%TO.P,MDBT42T-AT1,12,FLASH_DEFAULT*%
%TO.N,GND*%
X157700000Y-37740000D03*
%TO.P,MDBT42T-AT1,13,RTS/XL2*%
%TO.N,unconnected-(MDBT42T-AT1-RTS{slash}XL2-Pad13)*%
X158400000Y-37740000D03*
%TO.P,MDBT42T-AT1,14,CTS/XL1*%
%TO.N,unconnected-(MDBT42T-AT1-CTS{slash}XL1-Pad14)*%
X159100000Y-37740000D03*
%TO.P,MDBT42T-AT1,15,VDD*%
%TO.N,+3V3*%
X159800000Y-37740000D03*
%TO.P,MDBT42T-AT1,16,GND@16*%
%TO.N,GND*%
X160500000Y-37740000D03*
D30*
%TO.P,MDBT42T-AT1,17,DCC*%
%TO.N,unconnected-(MDBT42T-AT1-DCC-Pad17)*%
X161600000Y-36240000D03*
%TO.P,MDBT42T-AT1,18,DEC4*%
%TO.N,unconnected-(MDBT42T-AT1-DEC4-Pad18)*%
X161600000Y-35540000D03*
D29*
%TO.P,MDBT42T-AT1,19,GND@19*%
%TO.N,GND*%
X161600000Y-30540000D03*
%TD*%
D27*
%TO.P,C2,1*%
%TO.N,+3V3*%
X135577500Y-60340000D03*
%TO.P,C2,2*%
%TO.N,GND*%
X133502500Y-60340000D03*
%TD*%
D10*
%TO.P,R6,1*%
%TO.N,/USER_LED*%
X132960000Y-75150000D03*
%TO.P,R6,2*%
%TO.N,Net-(D3-A)*%
X132960000Y-77150000D03*
%TD*%
D14*
%TO.P,R7,1*%
%TO.N,Net-(MDBT42T-AT1-INDICATOR)*%
X150640000Y-33475000D03*
%TO.P,R7,2*%
%TO.N,Net-(D4-A)*%
X150640000Y-31475000D03*
%TD*%
D32*
%TO.P,C4,1*%
%TO.N,+3V3*%
X148960000Y-70302500D03*
%TO.P,C4,2*%
%TO.N,GND*%
X148960000Y-72377500D03*
%TD*%
D33*
%TO.P,U2,1,I/O1*%
%TO.N,/USB_CONN_D-*%
X139730000Y-47510000D03*
%TO.P,U2,2,GND*%
%TO.N,GND*%
X138780000Y-47510000D03*
%TO.P,U2,3,I/O2*%
%TO.N,/USB_CONN_D+*%
X137830000Y-47510000D03*
%TO.P,U2,4,I/O2*%
%TO.N,/USB_D+*%
X137830000Y-49785000D03*
%TO.P,U2,5,VBUS*%
%TO.N,Vusb*%
X138780000Y-49785000D03*
%TO.P,U2,6,I/O1*%
%TO.N,/USB_D-*%
X139730000Y-49785000D03*
%TD*%
D15*
%TO.P,C5,1*%
%TO.N,+3V3*%
X145352500Y-76290000D03*
%TO.P,C5,2*%
%TO.N,GND*%
X147427500Y-76290000D03*
%TD*%
D18*
%TO.P,J3,1,Pin_1*%
%TO.N,+5V*%
X134460000Y-103485000D03*
D19*
%TO.P,J3,2,Pin_2*%
%TO.N,/ULTRA_TRIG*%
X137000000Y-103485000D03*
%TO.P,J3,3,Pin_3*%
%TO.N,/ULTRA_ECHO*%
X139540000Y-103485000D03*
%TO.P,J3,4,Pin_4*%
%TO.N,GND*%
X142080000Y-103485000D03*
%TD*%
D34*
%TO.P,J7,1,Pin_1*%
%TO.N,/AN2*%
X152510000Y-49370000D03*
D35*
%TO.P,J7,2,Pin_2*%
%TO.N,/AN1*%
X155010000Y-49370000D03*
%TO.P,J7,3,Pin_3*%
%TO.N,/BN2*%
X157510000Y-49370000D03*
%TO.P,J7,4,Pin_4*%
%TO.N,/BN1*%
X160010000Y-49370000D03*
%TD*%
D36*
%TO.P,Y2,1,1*%
%TO.N,/OSC_IN*%
X137952500Y-79920000D03*
%TO.P,Y2,2,2*%
%TO.N,GND*%
X140152500Y-79920000D03*
%TO.P,Y2,3,3*%
%TO.N,/OSC_OUT*%
X140152500Y-78220000D03*
%TO.P,Y2,4,4*%
%TO.N,GND*%
X137952500Y-78220000D03*
%TD*%
D37*
%TO.P,SW1,1,A*%
%TO.N,GND*%
X134220000Y-84280000D03*
%TO.P,SW1,2,B*%
%TO.N,/RESET*%
X140920000Y-84280000D03*
%TD*%
D15*
%TO.P,C6,1*%
%TO.N,+3V3*%
X145352500Y-78580000D03*
%TO.P,C6,2*%
%TO.N,GND*%
X147427500Y-78580000D03*
%TD*%
D16*
%TO.P,J5,1,Pin_1*%
%TO.N,+5V*%
X111750000Y-99875000D03*
D17*
%TO.P,J5,2,Pin_2*%
%TO.N,GND*%
X114250000Y-99875000D03*
%TD*%
D38*
%TO.P,D2,1,K*%
%TO.N,GND*%
X149492500Y-83950000D03*
%TO.P,D2,2,A*%
%TO.N,Net-(D2-A)*%
X147442500Y-83950000D03*
%TD*%
D27*
%TO.P,C1,1*%
%TO.N,+3V3*%
X134137500Y-72690000D03*
%TO.P,C1,2*%
%TO.N,GND*%
X132062500Y-72690000D03*
%TD*%
D26*
%TO.P,LED2,1,VDD*%
%TO.N,+5V*%
X177760000Y-103740000D03*
%TO.P,LED2,2,DOUT*%
%TO.N,unconnected-(LED2-DOUT-Pad2)*%
X177760000Y-100540000D03*
%TO.P,LED2,3,VSS*%
%TO.N,GND*%
X173360000Y-100540000D03*
%TO.P,LED2,4,DIN*%
%TO.N,Net-(LED1-DOUT)*%
X173360000Y-103740000D03*
%TD*%
D15*
%TO.P,C8,1*%
%TO.N,/OSC_OUT*%
X140312500Y-76140000D03*
%TO.P,C8,2*%
%TO.N,GND*%
X142387500Y-76140000D03*
%TD*%
D13*
%TO.P,R1,1*%
%TO.N,/BOOT*%
X121300000Y-69810000D03*
%TO.P,R1,2*%
%TO.N,Net-(R1-Pad2)*%
X119300000Y-69810000D03*
%TD*%
D20*
%TO.P,J10,1,Pin_1*%
%TO.N,+3V3*%
X97510000Y-78760000D03*
D21*
%TO.P,J10,2,Pin_2*%
%TO.N,/X1*%
X97510000Y-76260000D03*
%TO.P,J10,3,Pin_3*%
%TO.N,/X2*%
X97510000Y-73760000D03*
%TO.P,J10,4,Pin_4*%
%TO.N,/X3*%
X97510000Y-71260000D03*
%TO.P,J10,5,Pin_5*%
%TO.N,/X4*%
X97510000Y-68760000D03*
%TO.P,J10,6,Pin_6*%
%TO.N,GND*%
X97510000Y-66260000D03*
%TD*%
D39*
%TO.P,C3,1*%
%TO.N,+3V3*%
X147470000Y-61457500D03*
%TO.P,C3,2*%
%TO.N,GND*%
X147470000Y-59382500D03*
%TD*%
D40*
%TO.P,SW2,1,A*%
%TO.N,/uBUTTON*%
X177200000Y-88835000D03*
X177200000Y-94085000D03*
%TO.P,SW2,2,B*%
%TO.N,GND*%
X174000000Y-88835000D03*
X174000000Y-94085000D03*
%TD*%
D22*
%TO.P,D1,1,K*%
%TO.N,GND*%
X147160000Y-42210000D03*
%TO.P,D1,2,A*%
%TO.N,Net-(D1-A)*%
X147160000Y-40160000D03*
%TD*%
D41*
%TO.P,S1,1*%
%TO.N,+3V3*%
X121610000Y-72880000D03*
%TO.P,S1,2*%
%TO.N,Net-(R1-Pad2)*%
X119110000Y-72880000D03*
%TO.P,S1,3*%
%TO.N,GND*%
X116610000Y-72880000D03*
%TO.P,S1,4*%
%TO.N,unconnected-(S1-Pad4)*%
X121610000Y-78380000D03*
%TO.P,S1,5*%
%TO.N,unconnected-(S1-Pad5)*%
X119110000Y-78380000D03*
%TO.P,S1,6*%
%TO.N,unconnected-(S1-Pad6)*%
X116610000Y-78380000D03*
%TD*%
D27*
%TO.P,C11,1*%
%TO.N,+5V*%
X177747500Y-107320000D03*
%TO.P,C11,2*%
%TO.N,GND*%
X175672500Y-107320000D03*
%TD*%
D42*
%TO.P,J1,1,VBUS*%
%TO.N,Net-(J1-VBUS)*%
X139980000Y-37000000D03*
%TO.P,J1,2,D-*%
%TO.N,/D-*%
X139180000Y-37000000D03*
%TO.P,J1,3,D+*%
%TO.N,/D+*%
X138380000Y-37000000D03*
%TO.P,J1,4,ID*%
%TO.N,unconnected-(J1-ID-Pad4)*%
X137580000Y-37000000D03*
%TO.P,J1,5,GND*%
%TO.N,GND*%
X136780000Y-37000000D03*
D43*
%TO.P,J1,6,Shield*%
X142830000Y-36900000D03*
X142830000Y-31450000D03*
X133930000Y-36900000D03*
X133930000Y-31450000D03*
%TD*%
D27*
%TO.P,C7,1*%
%TO.N,/RESET*%
X138247500Y-88630000D03*
%TO.P,C7,2*%
%TO.N,GND*%
X136172500Y-88630000D03*
%TD*%
D14*
%TO.P,R4,1*%
%TO.N,Vusb*%
X144880000Y-42215000D03*
%TO.P,R4,2*%
%TO.N,Net-(D1-A)*%
X144880000Y-40215000D03*
%TD*%
D44*
%TO.N,GND*%
X123350000Y-85550001D03*
X120250000Y-88450001D03*
X123250000Y-90750001D03*
X125800000Y-88200001D03*
%TO.N,+5V*%
X124400000Y-87800001D03*
X122856644Y-89343356D03*
%TO.N,Net-(LED1-DIN)*%
X121993356Y-85406644D03*
X120400000Y-87000001D03*
%TO.N,GND*%
X138950000Y-94650001D03*
X142600000Y-90450001D03*
%TO.N,+3V3*%
X141050000Y-90600001D03*
X138300000Y-93300001D03*
%TO.N,GND*%
X145750000Y-96000001D03*
X143600000Y-93950001D03*
X149600000Y-92250001D03*
X148850000Y-43500000D03*
X135300000Y-31060000D03*
X135310000Y-31970000D03*
X138320000Y-48630000D03*
X101550000Y-104940000D03*
X136780000Y-35480000D03*
X137200000Y-59890000D03*
X135310000Y-36460000D03*
X100250000Y-97140000D03*
X148430000Y-76280000D03*
X133260000Y-70570000D03*
X160490000Y-38990000D03*
X156300000Y-38970000D03*
X135310000Y-75730000D03*
X147400000Y-90200001D03*
X141240000Y-79920000D03*
X116610000Y-74610000D03*
X162820000Y-30550000D03*
X150070000Y-72380000D03*
X174000000Y-92900000D03*
X132070000Y-71580000D03*
X133640000Y-85390000D03*
X141410000Y-36420000D03*
X145110000Y-70690000D03*
X173350000Y-99580000D03*
X152600000Y-42700000D03*
X153880000Y-30560000D03*
X148580000Y-83950000D03*
X135220000Y-88640000D03*
X141420000Y-37150000D03*
X141430000Y-31900000D03*
X141430000Y-31090000D03*
X157700000Y-38950000D03*
X175680000Y-106180000D03*
X148460000Y-78570000D03*
X137960000Y-77270000D03*
X148070000Y-63560000D03*
X148400000Y-32585000D03*
X154100000Y-36200000D03*
X130690000Y-76070000D03*
X133510000Y-59260000D03*
X142390000Y-77290000D03*
X173990000Y-90010000D03*
X142300000Y-74080000D03*
X147470000Y-58420000D03*
X135310000Y-37250000D03*
X147170000Y-41280000D03*
%TO.N,/BL_WAKEUP*%
X151324265Y-43724265D03*
X150075735Y-42475735D03*
%TO.N,/E2A*%
X146806644Y-91306644D03*
X148450000Y-92900001D03*
%TO.N,/E2B*%
X146293354Y-94793358D03*
X144779644Y-93306644D03*
%TD*%
D45*
%TO.N,+5V*%
X105500000Y-104400000D02*
X104700000Y-103600000D01*
X116800000Y-104400000D02*
X105500000Y-104400000D01*
X117800000Y-94400000D02*
X117800000Y-103400000D01*
X122856644Y-89343356D02*
X117800000Y-94400000D01*
X124400000Y-87800000D02*
X124400000Y-87800001D01*
X128117500Y-84082500D02*
X124400000Y-87800000D01*
X117800000Y-103400000D02*
X116800000Y-104400000D01*
D46*
%TO.N,Net-(LED1-DIN)*%
X126100000Y-81300000D02*
X126117500Y-81300000D01*
X121993356Y-85406644D02*
X126100000Y-81300000D01*
X112099999Y-87000001D02*
X120400000Y-87000001D01*
X109000000Y-90100000D02*
X112099999Y-87000001D01*
%TO.N,/E2B*%
X126750000Y-92350000D02*
X143823000Y-92350000D01*
X112745000Y-78345000D02*
X126750000Y-92350000D01*
X112745000Y-71311533D02*
X112745000Y-78345000D01*
X143823000Y-92350000D02*
X144779644Y-93306644D01*
X135065000Y-67835000D02*
X116221532Y-67835000D01*
X116221532Y-67835000D02*
X112745000Y-71311533D01*
%TO.N,/E2A*%
X127100000Y-91400000D02*
X146713288Y-91400000D01*
X113200000Y-77500000D02*
X127100000Y-91400000D01*
X116365000Y-68335000D02*
X113200000Y-71500000D01*
X113200000Y-71500000D02*
X113200000Y-77500000D01*
X146713288Y-91400000D02*
X146806644Y-91306644D01*
X135065000Y-68335000D02*
X116365000Y-68335000D01*
D45*
%TO.N,+3V3*%
X145347500Y-86302501D02*
X145347500Y-81570000D01*
X141050000Y-90600001D02*
X145347500Y-86302501D01*
X138300000Y-93350001D02*
X138300000Y-93300001D01*
X135800000Y-95850001D02*
X138300000Y-93350001D01*
X126629999Y-95850001D02*
X135800000Y-95850001D01*
X122580000Y-99900000D02*
X126629999Y-95850001D01*
D46*
%TO.N,/E2B*%
X156720000Y-96400000D02*
X157890000Y-97570000D01*
X148000000Y-96400000D02*
X156720000Y-96400000D01*
X146393358Y-94793358D02*
X148000000Y-96400000D01*
X146293354Y-94793358D02*
X146393358Y-94793358D01*
%TO.N,/E2A*%
X159193000Y-98767000D02*
X157890000Y-100070000D01*
X159193000Y-97082056D02*
X159193000Y-98767000D01*
X158358944Y-96248000D02*
X159193000Y-97082056D01*
X149249999Y-93700000D02*
X154663468Y-93700000D01*
X154663468Y-93700000D02*
X157211468Y-96248000D01*
X157211468Y-96248000D02*
X158358944Y-96248000D01*
X148450000Y-92900001D02*
X149249999Y-93700000D01*
D47*
%TO.N,/PS2_SCK*%
X174200000Y-47200000D02*
X174260000Y-47260000D01*
X143990000Y-61410000D02*
X143990000Y-60435076D01*
X143990000Y-60435076D02*
X148112538Y-56312538D01*
X172560000Y-48840000D02*
X174200000Y-47200000D01*
X148112538Y-56312538D02*
X169447462Y-56312538D01*
X169447462Y-56312538D02*
X172560000Y-53200000D01*
X174260000Y-47260000D02*
X178500000Y-47260000D01*
X172560000Y-53200000D02*
X172560000Y-48840000D01*
D46*
%TO.N,/PS2_MISO*%
X171550000Y-53250000D02*
X171550000Y-39950000D01*
X148219793Y-55600000D02*
X143490000Y-60329793D01*
X171550000Y-39950000D02*
X173100000Y-38400000D01*
X169200000Y-55600000D02*
X148219793Y-55600000D01*
X143490000Y-60329793D02*
X143490000Y-61410000D01*
X173100000Y-38400000D02*
X177200000Y-38400000D01*
X171550000Y-53250000D02*
X169200000Y-55600000D01*
X177200000Y-38400000D02*
X178500000Y-37100000D01*
D47*
%TO.N,/PS2_CS*%
X179800000Y-47587760D02*
X178976760Y-48411000D01*
X178976760Y-48411000D02*
X175689000Y-48411000D01*
X144490000Y-60502176D02*
X144490000Y-61410000D01*
X173300000Y-50800000D02*
X173300000Y-53027100D01*
X173300000Y-53027100D02*
X168727100Y-57600000D01*
X179800000Y-43480000D02*
X179800000Y-47587760D01*
X168727100Y-57600000D02*
X147392176Y-57600000D01*
X147392176Y-57600000D02*
X144490000Y-60502176D01*
X178500000Y-42180000D02*
X179800000Y-43480000D01*
X175689000Y-48411000D02*
X173300000Y-50800000D01*
D46*
%TO.N,/PS2_MOSI*%
X142990000Y-60186326D02*
X142990000Y-61410000D01*
X178500000Y-34560000D02*
X177060000Y-36000000D01*
X170700000Y-38600000D02*
X170700000Y-52900000D01*
X177060000Y-36000000D02*
X173300000Y-36000000D01*
X173300000Y-36000000D02*
X170700000Y-38600000D01*
X170700000Y-52900000D02*
X168900000Y-54700000D01*
X148476326Y-54700000D02*
X142990000Y-60186326D01*
X168900000Y-54700000D02*
X148476326Y-54700000D01*
%TO.N,Net-(U1-PA1)*%
X143990000Y-72760000D02*
X144490000Y-72760000D01*
%TO.N,/X4*%
X100440000Y-68760000D02*
X101500000Y-67700000D01*
X97510000Y-68760000D02*
X100440000Y-68760000D01*
X111200000Y-67700000D02*
X113565000Y-65335000D01*
X101500000Y-67700000D02*
X111200000Y-67700000D01*
X113565000Y-65335000D02*
X135065000Y-65335000D01*
%TO.N,/X3*%
X101500000Y-69900000D02*
X100140000Y-71260000D01*
X114165000Y-65835000D02*
X110100000Y-69900000D01*
X100140000Y-71260000D02*
X97510000Y-71260000D01*
X110100000Y-69900000D02*
X101500000Y-69900000D01*
X135065000Y-65835000D02*
X114165000Y-65835000D01*
X97510000Y-71190000D02*
X97510000Y-71260000D01*
%TO.N,/X1*%
X100740000Y-76260000D02*
X97510000Y-76260000D01*
X115665000Y-66835000D02*
X107200000Y-75300000D01*
X135065000Y-66835000D02*
X115665000Y-66835000D01*
X107200000Y-75300000D02*
X101700000Y-75300000D01*
X101700000Y-75300000D02*
X100740000Y-76260000D01*
%TO.N,/X2*%
X108700000Y-72500000D02*
X101800000Y-72500000D01*
X100540000Y-73760000D02*
X97510000Y-73760000D01*
X101800000Y-72500000D02*
X100540000Y-73760000D01*
X114865000Y-66335000D02*
X108700000Y-72500000D01*
X135065000Y-66335000D02*
X114865000Y-66335000D01*
%TO.N,/USER_TX*%
X135065000Y-64335000D02*
X118535000Y-64335000D01*
X98720000Y-48820000D02*
X98720000Y-48770000D01*
X118535000Y-64335000D02*
X104300000Y-50100000D01*
X104300000Y-50100000D02*
X100000000Y-50100000D01*
X100000000Y-50100000D02*
X98720000Y-48820000D01*
%TO.N,/USER_RX*%
X98720000Y-51620000D02*
X98720000Y-51270000D01*
X99500000Y-52400000D02*
X98720000Y-51620000D01*
X117235000Y-64835000D02*
X104800000Y-52400000D01*
X104800000Y-52400000D02*
X99500000Y-52400000D01*
X135065000Y-64835000D02*
X117235000Y-64835000D01*
D47*
%TO.N,/RESET*%
X140920000Y-82980000D02*
X143500000Y-80400000D01*
X140920000Y-84280000D02*
X140920000Y-82980000D01*
X143400000Y-80300000D02*
X143400000Y-75553840D01*
X139990000Y-74090000D02*
X139990000Y-72760000D01*
X140920000Y-85957500D02*
X138247500Y-88630000D01*
X143500000Y-80400000D02*
X143400000Y-80300000D01*
X143400000Y-75553840D02*
X142846160Y-75000000D01*
X142846160Y-75000000D02*
X140900000Y-75000000D01*
X140900000Y-75000000D02*
X139990000Y-74090000D01*
X140920000Y-84280000D02*
X140920000Y-85957500D01*
D45*
%TO.N,+3V3*%
X178500000Y-51100000D02*
X173600000Y-56000000D01*
D46*
X129675500Y-70952000D02*
X126117500Y-74510000D01*
X147295000Y-63335000D02*
X147470000Y-63160000D01*
D48*
X117950000Y-38350000D02*
X119300000Y-38350000D01*
D46*
X133780000Y-71210000D02*
X133780000Y-71700000D01*
D48*
X180700000Y-53900000D02*
X179400000Y-55200000D01*
D45*
X133393750Y-57431250D02*
X135577500Y-59615000D01*
X145352500Y-78580000D02*
X145352500Y-76290000D01*
D46*
X135647500Y-60270000D02*
X135577500Y-60340000D01*
D45*
X173600000Y-56000000D02*
X170700000Y-58900000D01*
D46*
X148492500Y-69835000D02*
X148960000Y-70302500D01*
D48*
X178450000Y-78550000D02*
X172900000Y-78550000D01*
D46*
X126117500Y-74510000D02*
X126117500Y-75210000D01*
D48*
X162600000Y-32750000D02*
X159800000Y-35784000D01*
D46*
X147470000Y-63160000D02*
X147470000Y-61457500D01*
D48*
X117850000Y-38350000D02*
X116160000Y-40040000D01*
D46*
X142990000Y-72760000D02*
X142990000Y-70305000D01*
X133298000Y-71198000D02*
X132576127Y-71198000D01*
D48*
X119300000Y-38350000D02*
X119950000Y-39000000D01*
X170700000Y-58900000D02*
X177400000Y-58900000D01*
D45*
X108500000Y-42800000D02*
X109150000Y-42800000D01*
X170700000Y-58900000D02*
X151730000Y-58900000D01*
D46*
X142990000Y-70305000D02*
X142520000Y-69835000D01*
D45*
X94800000Y-40800000D02*
X98200000Y-37400000D01*
X129531250Y-57431250D02*
X133393750Y-57431250D01*
D48*
X177400000Y-58900000D02*
X179400000Y-60900000D01*
D45*
X102190000Y-42800000D02*
X98720000Y-46270000D01*
D48*
X179400000Y-60900000D02*
X179400000Y-77050000D01*
X171600000Y-79700000D02*
X171600000Y-84500000D01*
D45*
X113600000Y-38350000D02*
X117950000Y-38350000D01*
D46*
X136660000Y-60270000D02*
X135647500Y-60270000D01*
D48*
X171600000Y-84500000D02*
X173510000Y-86410000D01*
D46*
X136990000Y-61410000D02*
X136990000Y-60600000D01*
D48*
X119950000Y-40556730D02*
X122418000Y-43024730D01*
D45*
X122418000Y-43024730D02*
X122418000Y-50318000D01*
D46*
X144930000Y-69385000D02*
X144480000Y-69835000D01*
X142990000Y-73927500D02*
X145352500Y-76290000D01*
X133298000Y-71218000D02*
X133298000Y-71198000D01*
D45*
X122418000Y-50318000D02*
X129531250Y-57431250D01*
D46*
X145155000Y-63335000D02*
X144930000Y-63560000D01*
X133780000Y-71700000D02*
X133780000Y-72332500D01*
X136990000Y-60600000D02*
X136660000Y-60270000D01*
X133780000Y-72332500D02*
X134137500Y-72690000D01*
D48*
X179400000Y-55200000D02*
X174400000Y-55200000D01*
D46*
X144480000Y-69835000D02*
X142520000Y-69835000D01*
X144930000Y-63560000D02*
X144930000Y-69385000D01*
D48*
X180700000Y-33700000D02*
X180700000Y-53900000D01*
D45*
X109150000Y-42800000D02*
X113600000Y-38350000D01*
D46*
X137615000Y-69835000D02*
X136990000Y-69210000D01*
D45*
X103100000Y-37400000D02*
X108500000Y-42800000D01*
D48*
X119950000Y-39000000D02*
X119950000Y-40556730D01*
D46*
X136990000Y-69210000D02*
X136990000Y-61410000D01*
X126117500Y-77267500D02*
X126210000Y-77360000D01*
X142990000Y-72760000D02*
X142990000Y-73927500D01*
D45*
X178500000Y-49800000D02*
X178500000Y-51100000D01*
D46*
X132330127Y-70952000D02*
X129675500Y-70952000D01*
D45*
X145347500Y-78585000D02*
X145352500Y-78580000D01*
D48*
X179800000Y-32750000D02*
X180700000Y-33700000D01*
D45*
X98200000Y-37400000D02*
X103100000Y-37400000D01*
X145347500Y-81570000D02*
X145347500Y-78585000D01*
X94800000Y-76050000D02*
X94800000Y-40800000D01*
D46*
X136990000Y-69210000D02*
X136990000Y-70450000D01*
D45*
X97510000Y-78760000D02*
X94800000Y-76050000D01*
D46*
X173600000Y-56000000D02*
X174400000Y-55200000D01*
X132576127Y-71198000D02*
X132330127Y-70952000D01*
D48*
X173510000Y-86410000D02*
X175000000Y-86410000D01*
D45*
X108500000Y-42800000D02*
X102190000Y-42800000D01*
D46*
X134155000Y-70835000D02*
X133780000Y-71210000D01*
X146415000Y-69835000D02*
X148492500Y-69835000D01*
X146415000Y-63335000D02*
X147295000Y-63335000D01*
X151730000Y-58900000D02*
X147470000Y-63160000D01*
D48*
X159800000Y-35784000D02*
X159800000Y-37740000D01*
X117850000Y-38350000D02*
X117950000Y-38350000D01*
X172900000Y-78550000D02*
X171600000Y-79700000D01*
X179400000Y-77050000D02*
X178450000Y-78550000D01*
D46*
X136605000Y-70835000D02*
X135065000Y-70835000D01*
X146415000Y-69835000D02*
X144480000Y-69835000D01*
X135065000Y-70835000D02*
X134155000Y-70835000D01*
X146415000Y-63335000D02*
X145155000Y-63335000D01*
D48*
X162600000Y-32750000D02*
X179800000Y-32750000D01*
D45*
X135577500Y-59615000D02*
X135577500Y-60340000D01*
D46*
X142520000Y-69835000D02*
X137615000Y-69835000D01*
X133780000Y-71700000D02*
X133298000Y-71218000D01*
X136990000Y-70450000D02*
X136605000Y-70835000D01*
%TO.N,GND*%
X145465000Y-70335000D02*
X145110000Y-70690000D01*
D45*
X137960000Y-77270000D02*
X137960000Y-78212500D01*
X148430000Y-76280000D02*
X147437500Y-76280000D01*
X173360000Y-99590000D02*
X173350000Y-99580000D01*
X135310000Y-75730000D02*
X136262500Y-75730000D01*
D48*
X160500000Y-38980000D02*
X160490000Y-38990000D01*
D45*
X175672500Y-106187500D02*
X175680000Y-106180000D01*
D48*
X154100000Y-36200000D02*
X154408530Y-36200000D01*
D45*
X100240000Y-97150000D02*
X100250000Y-97140000D01*
D46*
X135065000Y-70335000D02*
X133495000Y-70335000D01*
D45*
X174000000Y-88835000D02*
X174000000Y-90000000D01*
D48*
X160500000Y-37740000D02*
X160500000Y-38980000D01*
X154408530Y-36200000D02*
X154448530Y-36240000D01*
D45*
X173360000Y-100540000D02*
X173360000Y-99590000D01*
X174000000Y-94085000D02*
X174000000Y-88835000D01*
X137960000Y-78212500D02*
X137952500Y-78220000D01*
X147437500Y-78570000D02*
X147427500Y-78580000D01*
X141240000Y-79920000D02*
X140152500Y-79920000D01*
X136172500Y-88630000D02*
X135230000Y-88630000D01*
D48*
X154448530Y-36240000D02*
X155200000Y-36240000D01*
D46*
X138780000Y-48170000D02*
X138320000Y-48630000D01*
D45*
X148410000Y-33500000D02*
X148410000Y-32595000D01*
D46*
X138780000Y-47510000D02*
X138780000Y-48170000D01*
D45*
X135230000Y-88630000D02*
X135220000Y-88640000D01*
X133510000Y-60332500D02*
X133502500Y-60340000D01*
D46*
X137490000Y-61410000D02*
X137490000Y-60180000D01*
X133495000Y-70335000D02*
X133260000Y-70570000D01*
D45*
X142390000Y-76142500D02*
X142387500Y-76140000D01*
D46*
X137490000Y-60180000D02*
X137200000Y-59890000D01*
D45*
X132070000Y-71580000D02*
X132070000Y-72682500D01*
D46*
X146415000Y-63835000D02*
X147795000Y-63835000D01*
D45*
X132070000Y-72682500D02*
X132062500Y-72690000D01*
D48*
X155200000Y-30540000D02*
X155180000Y-30560000D01*
D46*
X147795000Y-63835000D02*
X148070000Y-63560000D01*
D45*
X133640000Y-85390000D02*
X133640000Y-84860000D01*
X174000000Y-94085000D02*
X174000000Y-92900000D01*
D48*
X136780000Y-37000000D02*
X136780000Y-35480000D01*
D45*
X116610000Y-74610000D02*
X116610000Y-72880000D01*
D48*
X155180000Y-30560000D02*
X153880000Y-30560000D01*
D45*
X147170000Y-42200000D02*
X147160000Y-42210000D01*
X174000000Y-90000000D02*
X173990000Y-90010000D01*
X142390000Y-77290000D02*
X142390000Y-76142500D01*
X148962500Y-72380000D02*
X148960000Y-72377500D01*
X130690000Y-76070000D02*
X130690000Y-75155000D01*
D48*
X156300000Y-37740000D02*
X156300000Y-38970000D01*
X157700000Y-37740000D02*
X157700000Y-38950000D01*
D45*
X147470000Y-58420000D02*
X147470000Y-59382500D01*
X133510000Y-59260000D02*
X133510000Y-60332500D01*
X148580000Y-83950000D02*
X149492500Y-83950000D01*
X175672500Y-107320000D02*
X175672500Y-106187500D01*
X147170000Y-41280000D02*
X147170000Y-42200000D01*
X133640000Y-84860000D02*
X134220000Y-84280000D01*
D46*
X142300000Y-74080000D02*
X142490000Y-73890000D01*
D45*
X101550000Y-103900000D02*
X101550000Y-104940000D01*
X147437500Y-76280000D02*
X147427500Y-76290000D01*
D46*
X146415000Y-70335000D02*
X145465000Y-70335000D01*
D45*
X148460000Y-78570000D02*
X147437500Y-78570000D01*
X148410000Y-32595000D02*
X148400000Y-32585000D01*
D48*
X161600000Y-30540000D02*
X162810000Y-30540000D01*
D46*
X142490000Y-73890000D02*
X142490000Y-72760000D01*
D45*
X150070000Y-72380000D02*
X148962500Y-72380000D01*
D48*
X162810000Y-30540000D02*
X162820000Y-30550000D01*
D45*
X99275000Y-97150000D02*
X100240000Y-97150000D01*
D47*
%TO.N,Net-(R1-Pad2)*%
X119110000Y-72880000D02*
X119110000Y-70000000D01*
X119110000Y-70000000D02*
X119300000Y-69810000D01*
D46*
%TO.N,/BOOT*%
X121300000Y-69810000D02*
X122275000Y-68835000D01*
X122275000Y-68835000D02*
X135065000Y-68835000D01*
%TO.N,/OSC_OUT*%
X140312500Y-75032500D02*
X140312500Y-76140000D01*
X139490000Y-74210000D02*
X140312500Y-75032500D01*
X140312500Y-78060000D02*
X140152500Y-78220000D01*
X139490000Y-72760000D02*
X139490000Y-74210000D01*
X140312500Y-76140000D02*
X140312500Y-78060000D01*
%TO.N,/OSC_IN*%
X138690000Y-79920000D02*
X139030000Y-79580000D01*
X137952500Y-79920000D02*
X138690000Y-79920000D01*
X138990000Y-73830000D02*
X138410000Y-74410000D01*
X139030000Y-76422500D02*
X138337500Y-75730000D01*
X138410000Y-74410000D02*
X138410000Y-75657500D01*
X139030000Y-79580000D02*
X139030000Y-76422500D01*
X138990000Y-72760000D02*
X138990000Y-73830000D01*
X138410000Y-75657500D02*
X138337500Y-75730000D01*
D45*
%TO.N,Net-(D1-A)*%
X147105000Y-40215000D02*
X144880000Y-40215000D01*
X147160000Y-40160000D02*
X147105000Y-40215000D01*
D47*
%TO.N,/D+*%
X138555000Y-38675001D02*
X138555000Y-40095000D01*
X138380000Y-38500001D02*
X138555000Y-38675001D01*
X138380000Y-37000000D02*
X138380000Y-38500001D01*
X138555000Y-40095000D02*
X137680000Y-40970000D01*
X137680000Y-40970000D02*
X137680000Y-41715000D01*
%TO.N,/D-*%
X139180000Y-38500001D02*
X139005000Y-38675001D01*
X139005000Y-40095000D02*
X139860000Y-40950000D01*
X139860000Y-40950000D02*
X139860000Y-41735000D01*
X139180000Y-37000000D02*
X139180000Y-38500001D01*
X139005000Y-38675001D02*
X139005000Y-40095000D01*
D48*
%TO.N,Net-(J1-VBUS)*%
X139980000Y-37000000D02*
X139980000Y-38590000D01*
X140330000Y-38940000D02*
X142300000Y-38940000D01*
X142300000Y-38940000D02*
X142670000Y-39310000D01*
X142670000Y-39310000D02*
X142670000Y-40210000D01*
X139980000Y-38590000D02*
X140330000Y-38940000D01*
D47*
%TO.N,/USB_CONN_D+*%
X138554999Y-45998197D02*
X137830000Y-46723196D01*
X137830000Y-46723196D02*
X137830000Y-47510000D01*
X137680000Y-43715000D02*
X138554999Y-44589999D01*
X138554999Y-44589999D02*
X138554999Y-45998197D01*
%TO.N,/USB_CONN_D-*%
X139730000Y-46536802D02*
X139730000Y-47510000D01*
X139005001Y-45811803D02*
X139730000Y-46536802D01*
X139005001Y-44589999D02*
X139005001Y-45811803D01*
X139860000Y-43735000D02*
X139005001Y-44589999D01*
D46*
%TO.N,Vusb*%
X138780000Y-49230000D02*
X139340000Y-48670000D01*
X139340000Y-48670000D02*
X142290000Y-48670000D01*
X142290000Y-48670000D02*
X142670000Y-48290000D01*
X138780000Y-49785000D02*
X138780000Y-49230000D01*
D45*
X142715000Y-42215000D02*
X142670000Y-42260000D01*
X144880000Y-42215000D02*
X142715000Y-42215000D01*
D46*
X142670000Y-48290000D02*
X142670000Y-42260000D01*
D47*
%TO.N,/USB_D+*%
X137830000Y-50778751D02*
X137830000Y-49785000D01*
X138490000Y-60247499D02*
X138515000Y-60222499D01*
X138490000Y-61410000D02*
X138490000Y-60247499D01*
X137830000Y-50778751D02*
X138515000Y-51463750D01*
X138515000Y-60222499D02*
X138515000Y-51463750D01*
%TO.N,/USB_D-*%
X138965000Y-51543751D02*
X139730000Y-50778751D01*
X138990000Y-60247499D02*
X138965000Y-60222499D01*
X139730000Y-50778751D02*
X139730000Y-49785000D01*
X138965000Y-60222499D02*
X138965000Y-51543751D01*
X138990000Y-61410000D02*
X138990000Y-60247499D01*
D45*
%TO.N,Net-(D2-A)*%
X147347500Y-83855000D02*
X147442500Y-83950000D01*
X147347500Y-81570000D02*
X147347500Y-83855000D01*
D46*
%TO.N,Net-(D3-A)*%
X130745000Y-77150000D02*
X130690000Y-77205000D01*
X132960000Y-77150000D02*
X130745000Y-77150000D01*
%TO.N,/USER_LED*%
X136800000Y-74300000D02*
X137490000Y-73610000D01*
X132960000Y-75150000D02*
X133810000Y-74300000D01*
X137490000Y-73610000D02*
X137490000Y-72760000D01*
X133810000Y-74300000D02*
X136800000Y-74300000D01*
%TO.N,+5V*%
X103600000Y-102900000D02*
X104000000Y-102900000D01*
D45*
X105975000Y-104875000D02*
X105125000Y-104025000D01*
X180400000Y-92484342D02*
X180400000Y-83800000D01*
X97200000Y-97150000D02*
X97200000Y-100650000D01*
X105975000Y-104875000D02*
X107900000Y-106800000D01*
X173100000Y-102250000D02*
X176450000Y-102250000D01*
X164300000Y-105250000D02*
X170194000Y-105250000D01*
X180400000Y-95350000D02*
X180400000Y-92484342D01*
X111750000Y-99875000D02*
X108725000Y-102900000D01*
D46*
X97200000Y-100650000D02*
X97150000Y-100700000D01*
D45*
X97150000Y-100700000D02*
X99350000Y-102900000D01*
X99350000Y-102900000D02*
X103600000Y-102900000D01*
X104000000Y-102900000D02*
X104700000Y-103600000D01*
X104700000Y-103600000D02*
X105125000Y-104025000D01*
X170194000Y-105250000D02*
X173100000Y-102250000D01*
D46*
X134460000Y-104240000D02*
X134460000Y-103485000D01*
D45*
X133450000Y-105250000D02*
X164300000Y-105250000D01*
X131900000Y-106800000D02*
X133450000Y-105250000D01*
X107900000Y-106800000D02*
X131900000Y-106800000D01*
D46*
X164300000Y-105250000D02*
X164750000Y-105250000D01*
D45*
X180400000Y-95350000D02*
X178300000Y-97450000D01*
X180400000Y-83800000D02*
X176465000Y-79865000D01*
X108725000Y-102900000D02*
X103600000Y-102900000D01*
X177747500Y-107320000D02*
X177747500Y-103752500D01*
X164750000Y-105250000D02*
X172900000Y-97450000D01*
X178300000Y-97450000D02*
X172900000Y-97450000D01*
X128117500Y-81300000D02*
X128117500Y-84082500D01*
X133450000Y-105250000D02*
X134460000Y-104240000D01*
D46*
X177747500Y-103752500D02*
X177760000Y-103740000D01*
X176465000Y-79865000D02*
X176465000Y-79835000D01*
D45*
X176450000Y-102250000D02*
X177760000Y-103740000D01*
D46*
%TO.N,/IMU_INT*%
X177616000Y-63206000D02*
X176465000Y-62055000D01*
X146415000Y-65335000D02*
X160235000Y-65335000D01*
X177500000Y-76000000D02*
X170900000Y-76000000D01*
X178100000Y-63700000D02*
X178100000Y-75400000D01*
X160235000Y-65335000D02*
X170800000Y-75900000D01*
X178100000Y-75400000D02*
X177500000Y-76000000D01*
X177616000Y-63206000D02*
X177616000Y-63216000D01*
X177616000Y-63216000D02*
X178100000Y-63700000D01*
X170900000Y-76000000D02*
X170800000Y-75900000D01*
%TO.N,/IMU_I2C_SCL*%
X169800000Y-73483550D02*
X175193550Y-73483550D01*
X169583550Y-73483550D02*
X169800000Y-73483550D01*
X146415000Y-64835000D02*
X160935000Y-64835000D01*
X175193550Y-73483550D02*
X176465000Y-74755000D01*
X160935000Y-64835000D02*
X169583550Y-73483550D01*
%TO.N,/IMU_I2C_SDA*%
X168400000Y-71000000D02*
X175250000Y-71000000D01*
X146415000Y-64335000D02*
X161735000Y-64335000D01*
X161735000Y-64335000D02*
X168400000Y-71000000D01*
X175250000Y-71000000D02*
X176465000Y-72215000D01*
D47*
%TO.N,Net-(D4-A)*%
X148410000Y-31450000D02*
X150615000Y-31450000D01*
X150615000Y-31450000D02*
X150640000Y-31475000D01*
D46*
%TO.N,/BL_WAKEUP*%
X151372000Y-41179470D02*
X151372000Y-36905673D01*
X154137673Y-34140000D02*
X155200000Y-34140000D01*
X151372000Y-36905673D02*
X154137673Y-34140000D01*
X140490000Y-54558530D02*
X140490000Y-61410000D01*
X150075735Y-42475735D02*
X151372000Y-41179470D01*
X151324265Y-43724265D02*
X140490000Y-54558530D01*
D47*
%TO.N,/BL_RX*%
X139990000Y-54210000D02*
X152600000Y-41600000D01*
X153910057Y-35540000D02*
X155200000Y-35540000D01*
X152600000Y-36850057D02*
X153910057Y-35540000D01*
X152600000Y-41600000D02*
X152600000Y-36850057D01*
X139990000Y-61410000D02*
X139990000Y-54210000D01*
%TO.N,/BL_TX*%
X154042957Y-34840000D02*
X155200000Y-34840000D01*
X151800000Y-41600000D02*
X151800000Y-37082957D01*
X139490000Y-61410000D02*
X139490000Y-53910000D01*
X139490000Y-53910000D02*
X151800000Y-41600000D01*
X151800000Y-37082957D02*
X154042957Y-34840000D01*
%TO.N,Net-(MDBT42T-AT1-INDICATOR)*%
X150640000Y-33475000D02*
X155165000Y-33475000D01*
X155165000Y-33475000D02*
X155200000Y-33440000D01*
D46*
%TO.N,/ULTRA_TRIG*%
X154200000Y-77900000D02*
X154200000Y-84800000D01*
X138300000Y-97000000D02*
X138300000Y-102185000D01*
X143490000Y-73607008D02*
X144482992Y-74600000D01*
X138300000Y-102185000D02*
X137000000Y-103485000D01*
X144482992Y-74600000D02*
X150900000Y-74600000D01*
X139500000Y-95800000D02*
X138300000Y-97000000D01*
X143490000Y-72760000D02*
X143490000Y-73607008D01*
X150900000Y-74600000D02*
X154200000Y-77900000D01*
X154200000Y-84800000D02*
X143200000Y-95800000D01*
X143200000Y-95800000D02*
X139500000Y-95800000D01*
%TO.N,/ULTRA_ECHO*%
X147400000Y-73100000D02*
X147400000Y-71820000D01*
X155000000Y-85200000D02*
X155000000Y-77200000D01*
X148300000Y-74000000D02*
X147400000Y-73100000D01*
X139540000Y-103485000D02*
X140900000Y-102125000D01*
X140900000Y-102125000D02*
X140900000Y-99300000D01*
X151800000Y-74000000D02*
X148300000Y-74000000D01*
X140900000Y-99300000D02*
X155000000Y-85200000D01*
X147400000Y-71820000D02*
X146415000Y-70835000D01*
X155000000Y-77200000D02*
X151800000Y-74000000D01*
%TO.N,/SWCLK*%
X130235000Y-63335000D02*
X135065000Y-63335000D01*
X118700000Y-40040000D02*
X119900000Y-41240000D01*
X119900000Y-53000000D02*
X130235000Y-63335000D01*
X119900000Y-41240000D02*
X119900000Y-53000000D01*
%TO.N,/SWDIO*%
X125500000Y-41760000D02*
X123780000Y-40040000D01*
D47*
X136900000Y-56210000D02*
X136900000Y-56200000D01*
D46*
X137990000Y-57300000D02*
X136900000Y-56210000D01*
X125500000Y-51800000D02*
X125500000Y-41760000D01*
D47*
X137990000Y-57700000D02*
X137990000Y-57300000D01*
D46*
X129900000Y-56200000D02*
X125500000Y-51800000D01*
X137990000Y-61410000D02*
X137990000Y-57700000D01*
X136900000Y-56200000D02*
X129900000Y-56200000D01*
%TO.N,/uBUTTON*%
X175678000Y-87732000D02*
X177000000Y-86410000D01*
D47*
X177000000Y-88635000D02*
X177200000Y-88835000D01*
D46*
X167932000Y-87732000D02*
X175678000Y-87732000D01*
X156925000Y-66335000D02*
X161700000Y-71110000D01*
X161700000Y-81500000D02*
X167932000Y-87732000D01*
X161700000Y-71110000D02*
X161700000Y-81500000D01*
X177000000Y-86410000D02*
X177000000Y-88635000D01*
X177200000Y-94085000D02*
X177200000Y-88835000D01*
X146415000Y-66335000D02*
X156925000Y-66335000D01*
D47*
%TO.N,/BN1*%
X160010000Y-50290000D02*
X159000000Y-51300000D01*
X156161000Y-49971760D02*
X156161000Y-48461000D01*
X159000000Y-51300000D02*
X157489240Y-51300000D01*
X156161000Y-48461000D02*
X155700000Y-48000000D01*
X148700000Y-48000000D02*
X141490000Y-55210000D01*
X160010000Y-49370000D02*
X160010000Y-50290000D01*
X141490000Y-55210000D02*
X141490000Y-61410000D01*
X157489240Y-51300000D02*
X156161000Y-49971760D01*
X155700000Y-48000000D02*
X148700000Y-48000000D01*
%TO.N,/AN1*%
X142490000Y-56310000D02*
X142490000Y-61410000D01*
X153380000Y-51000000D02*
X147800000Y-51000000D01*
X147800000Y-51000000D02*
X142490000Y-56310000D01*
X155010000Y-49370000D02*
X153380000Y-51000000D01*
X154930000Y-49370000D02*
X155010000Y-49370000D01*
%TO.N,/AN2*%
X141990000Y-55810000D02*
X148430000Y-49370000D01*
X141990000Y-61410000D02*
X141990000Y-55810000D01*
X148430000Y-49370000D02*
X152510000Y-49370000D01*
%TO.N,/BN2*%
X157510000Y-49370000D02*
X157510000Y-49242900D01*
X157510000Y-49242900D02*
X155866100Y-47599000D01*
X155866100Y-47599000D02*
X148301000Y-47599000D01*
X140990000Y-59100000D02*
X140990000Y-61410000D01*
X148301000Y-47599000D02*
X140990000Y-54910000D01*
X140990000Y-54910000D02*
X140990000Y-59100000D01*
X157510000Y-48810000D02*
X157510000Y-49370000D01*
D46*
%TO.N,/E1A*%
X160000000Y-75200000D02*
X160000000Y-92960000D01*
X146415000Y-67835000D02*
X152635000Y-67835000D01*
X152635000Y-67835000D02*
X160000000Y-75200000D01*
X160000000Y-92960000D02*
X157890000Y-95070000D01*
%TO.N,/E1B*%
X151602100Y-68335000D02*
X159500000Y-76232900D01*
X159500000Y-90960000D02*
X157890000Y-92570000D01*
X159500000Y-76232900D02*
X159500000Y-90960000D01*
X146415000Y-68335000D02*
X151602100Y-68335000D01*
%TO.N,/PWR_ADC*%
X146415000Y-69335000D02*
X151325000Y-69335000D01*
X157890000Y-90070000D02*
X157890000Y-75900000D01*
X151325000Y-69335000D02*
X157890000Y-75900000D01*
%TO.N,Net-(LED1-DOUT)*%
X169900000Y-108000000D02*
X101250000Y-108000000D01*
X173360000Y-104540000D02*
X169900000Y-108000000D01*
X173360000Y-103740000D02*
X173360000Y-104540000D01*
X101250000Y-108000000D02*
X97150000Y-103900000D01*
%TO.N,Net-(LED1-DIN)*%
X109000000Y-90100000D02*
X101550000Y-97550000D01*
D47*
X126210000Y-79260000D02*
X126210000Y-81207500D01*
D46*
X101550000Y-97550000D02*
X101550000Y-100700000D01*
D47*
X126210000Y-81207500D02*
X126117500Y-81300000D01*
D46*
%TO.N,/RGB_DIN*%
X124534000Y-78310000D02*
X128085000Y-78310000D01*
X120500000Y-74276000D02*
X124534000Y-78310000D01*
X128703158Y-71000000D02*
X120984000Y-71000000D01*
D47*
X128117500Y-75210000D02*
X128117500Y-78277500D01*
D46*
X129868158Y-69835000D02*
X128703158Y-71000000D01*
D47*
X128117500Y-78277500D02*
X128085000Y-78310000D01*
D46*
X120500000Y-71484000D02*
X120500000Y-74276000D01*
X120984000Y-71000000D02*
X120500000Y-71484000D01*
X135065000Y-69835000D02*
X129868158Y-69835000D01*
%TD*%
%TA.AperFunction,Conductor*%
%TO.N,GND*%
G36*
X141923832Y-35959685D02*
G01*
X141969587Y-36012489D01*
X141980786Y-36062660D01*
X141998645Y-37714660D01*
X141979686Y-37781908D01*
X141927380Y-37828231D01*
X141874652Y-37840000D01*
X141114000Y-37840000D01*
X141046961Y-37820315D01*
X141001206Y-37767511D01*
X140990000Y-37716000D01*
X140990000Y-36064000D01*
X141009685Y-35996961D01*
X141062489Y-35951206D01*
X141114000Y-35940000D01*
X141856793Y-35940000D01*
X141923832Y-35959685D01*
G37*
%TD.AperFunction*%
%TD*%
%TA.AperFunction,Conductor*%
%TO.N,+3V3*%
G36*
X127082774Y-71647185D02*
G01*
X127128529Y-71699989D01*
X127129709Y-71702655D01*
X127139974Y-71726607D01*
X127150000Y-71775452D01*
X127150000Y-74296365D01*
X127131540Y-74361460D01*
X127113478Y-74390743D01*
X127082686Y-74440666D01*
X127027501Y-74607203D01*
X127027501Y-74607204D01*
X127027500Y-74607204D01*
X127017000Y-74709983D01*
X127017000Y-75710001D01*
X127017001Y-75710019D01*
X127027500Y-75812796D01*
X127027501Y-75812799D01*
X127082685Y-75979331D01*
X127082690Y-75979342D01*
X127131538Y-76058536D01*
X127150000Y-76123633D01*
X127150000Y-77539039D01*
X127130315Y-77606078D01*
X127107516Y-77632480D01*
X127098929Y-77639970D01*
X127095635Y-77641919D01*
X127088381Y-77649172D01*
X127085208Y-77651941D01*
X127057153Y-77664866D01*
X127030050Y-77679666D01*
X127023502Y-77680369D01*
X127021749Y-77681178D01*
X127019249Y-77680827D01*
X127003692Y-77682500D01*
X125375598Y-77682500D01*
X125308559Y-77662815D01*
X125278780Y-77635974D01*
X125277182Y-77633977D01*
X125250666Y-77569334D01*
X125250000Y-77556503D01*
X125250000Y-74800000D01*
X124950000Y-74400000D01*
X121562781Y-74400000D01*
X121495742Y-74380315D01*
X121475100Y-74363681D01*
X121163819Y-74052400D01*
X121130334Y-73991077D01*
X121127500Y-73964719D01*
X121127500Y-71795281D01*
X121136144Y-71765840D01*
X121142668Y-71735854D01*
X121146422Y-71730838D01*
X121147185Y-71728242D01*
X121163819Y-71707600D01*
X121207600Y-71663819D01*
X121268923Y-71630334D01*
X121295281Y-71627500D01*
X127015735Y-71627500D01*
X127082774Y-71647185D01*
G37*
%TD.AperFunction*%
%TD*%
%TA.AperFunction,Conductor*%
%TO.N,GND*%
G36*
X142013832Y-30549685D02*
G01*
X142059587Y-30602489D01*
X142070786Y-30652660D01*
X142088645Y-32304660D01*
X142069686Y-32371908D01*
X142017380Y-32418231D01*
X141964652Y-32430000D01*
X141204000Y-32430000D01*
X141136961Y-32410315D01*
X141091206Y-32357511D01*
X141080000Y-32306000D01*
X141080000Y-30654000D01*
X141099685Y-30586961D01*
X141152489Y-30541206D01*
X141204000Y-30530000D01*
X141946793Y-30530000D01*
X142013832Y-30549685D01*
G37*
%TD.AperFunction*%
%TD*%
%TA.AperFunction,Conductor*%
%TO.N,GND*%
G36*
X135703832Y-35959685D02*
G01*
X135749587Y-36012489D01*
X135760786Y-36062660D01*
X135778645Y-37714660D01*
X135759686Y-37781908D01*
X135707380Y-37828231D01*
X135654652Y-37840000D01*
X134894000Y-37840000D01*
X134826961Y-37820315D01*
X134781206Y-37767511D01*
X134770000Y-37716000D01*
X134770000Y-36064000D01*
X134789685Y-35996961D01*
X134842489Y-35951206D01*
X134894000Y-35940000D01*
X135636793Y-35940000D01*
X135703832Y-35959685D01*
G37*
%TD.AperFunction*%
%TD*%
%TA.AperFunction,Conductor*%
%TO.N,GND*%
G36*
X135653832Y-30559685D02*
G01*
X135699587Y-30612489D01*
X135710786Y-30662660D01*
X135728645Y-32314660D01*
X135709686Y-32381908D01*
X135657380Y-32428231D01*
X135604652Y-32440000D01*
X134844000Y-32440000D01*
X134776961Y-32420315D01*
X134731206Y-32367511D01*
X134720000Y-32316000D01*
X134720000Y-30664000D01*
X134739685Y-30596961D01*
X134792489Y-30551206D01*
X134844000Y-30540000D01*
X135586793Y-30540000D01*
X135653832Y-30559685D01*
G37*
%TD.AperFunction*%
%TD*%
M02*
